# xmcd
# Copyright (c) 1998 CDDB Inc.
#
# Track frame offsets:
#	150
#	25363
#	57412
#	89091
#	110059
#
# Disc length: 1726 seconds
#
# Revision: 3
# Processed by: cddbd v1.5.1PL0 Copyright (c) Steve Scherf et al.
# Submitted via: AudioCatalyst 2.10full
#
DISCID=4506bc05
DTITLE=O. H. Radish Golden Rules - Ja etih mest ne znaju
DYEAR=1900
DGENRE=
TTITLE0=Ja dumaju o vas
TTITLE1=Blues 16
TTITLE2=Vse i nichego
TTITLE3=Govorja figuralno
TTITLE4=Atkins
EXTD=2002
EXTT0=
EXTT1=
EXTT2=
EXTT3=
EXTT4=
PLAYORDER=
